<?xml version="1.0" standalone="no"?>
<!DOCTYPE svg PUBLIC "-//W3C//DTD SVG 20010904//EN"
 "http://www.w3.org/TR/2001/REC-SVG-20010904/DTD/svg10.dtd">
<svg version="1.0" xmlns="http://www.w3.org/2000/svg"
 width="800.000000pt" height="800.000000pt" viewBox="0 0 800.000000 800.000000"
 preserveAspectRatio="xMidYMid meet">

<g transform="translate(0.000000,800.000000) scale(0.100000,-0.100000)"
fill="#000000" stroke="none">
<path d="M1375 7400 c-3 -5 -18 -10 -33 -10 -44 0 -161 -37 -238 -75 -71 -34
-196 -128 -245 -181 -119 -131 -198 -301 -219 -473 -6 -43 -10 -813 -10 -1884
l0 -1810 77 -45 c110 -63 428 -221 558 -277 61 -26 128 -55 150 -65 22 -10
109 -43 192 -74 688 -254 1364 -400 2073 -448 240 -17 707 -17 935 0 757 55
1422 210 2139 496 126 50 183 47 214 -11 23 -42 15 -78 -25 -114 -47 -43 -270
-190 -383 -253 -131 -74 -374 -190 -516 -247 -227 -91 -573 -199 -764 -240
-471 -100 -823 -139 -1248 -139 -465 0 -895 54 -1316 164 -144 38 -182 49
-329 98 -584 193 -1139 498 -1633 900 -67 54 -126 98 -132 98 -7 0 -8 -11 -1
-32 5 -19 9 -324 9 -713 0 -697 3 -758 41 -869 21 -62 104 -236 117 -246 4 -3
26 -30 49 -60 53 -71 139 -160 154 -160 7 0 20 -6 28 -14 29 -26 194 -106 255
-124 57 -16 231 -17 2736 -17 2522 1 2679 2 2753 19 104 23 190 63 266 122 35
27 72 54 82 60 27 15 79 66 79 76 0 4 23 40 51 80 28 39 62 92 76 117 43 82
84 222 94 321 9 101 17 820 9 820 -3 0 -30 -37 -60 -82 -59 -91 -184 -226
-237 -259 -39 -24 -83 -19 -83 9 0 9 24 80 53 157 127 331 187 547 187 670 0
127 -118 170 -440 162 -102 -3 -241 -10 -310 -16 -69 -6 -150 -12 -180 -14
-54 -2 -55 -1 -58 26 -4 37 16 60 95 104 226 126 540 186 818 157 72 -7 149
-14 173 -14 l42 0 0 1733 c0 1106 -4 1762 -10 1813 -16 125 -36 190 -92 304
-46 94 -63 116 -157 211 -96 95 -116 111 -211 158 -58 28 -136 58 -175 67 -38
9 -84 20 -101 25 -44 13 -5291 12 -5299 -1z m3020 -844 c44 -9 117 -28 162
-42 337 -102 581 -341 663 -648 35 -131 42 -296 49 -1096 9 -917 -8 -808 167
-1080 95 -148 110 -183 100 -223 -3 -13 -84 -92 -192 -188 -388 -340 -370
-328 -441 -314 -29 5 -57 28 -149 123 -62 65 -145 162 -184 215 l-72 98 -27
-23 c-14 -13 -55 -50 -91 -84 -268 -251 -519 -347 -910 -347 -307 -1 -495 63
-667 227 -153 144 -237 303 -279 525 -25 128 -22 378 4 497 87 386 365 688
757 823 195 66 380 100 800 146 221 24 239 26 262 31 l23 4 -6 188 c-6 197
-17 256 -58 326 -30 51 -100 118 -153 144 -93 48 -278 53 -396 13 -157 -54
-281 -185 -318 -336 -16 -65 -35 -102 -58 -115 -24 -13 -128 -13 -246 0 -49 5
-164 17 -255 25 -187 17 -221 26 -250 62 -25 32 -25 69 1 169 47 181 100 296
196 422 166 218 454 383 788 451 144 29 144 29 435 26 199 -2 285 -6 345 -19z"/>
<path d="M4130 4663 c-25 -2 -85 -12 -135 -23 -353 -75 -529 -243 -560 -536
-9 -85 11 -216 45 -290 31 -68 106 -156 155 -181 146 -76 341 -50 475 64 91
76 205 286 238 438 6 28 13 159 17 293 l6 242 -98 -2 c-54 -1 -118 -3 -143 -5z"/>
</g>
</svg>
